grf
version=1
nRows=20
nColumns=19
inDegrees=yes
endheader
time	ground_force_1_vx	ground_force_1_vy	ground_force_1_vz	ground_force_1_px	ground_force_1_py	ground_force_1_pz	ground_moment_1_mx	ground_moment_1_my	ground_moment_1_mz	ground_force_2_vx	ground_force_2_vy	ground_force_2_vz	ground_force_2_px	ground_force_2_py	ground_force_2_pz	ground_moment_2_mx	ground_moment_2_my	ground_moment_2_mz
1.930000	11.773395	1485.378009	-480.793160	0.140197	0.000000	-0.783523	0.000000	13.447015	0.000000	-8.428683	1430.748888	480.255808	0.173535	0.000000	-1.581048	0.000000	-10.630254	-0.000000
1.931000	11.796532	1485.173432	-480.543464	0.140458	0.000000	-0.783552	0.000000	13.448481	0.000000	-8.251461	1431.018483	480.215782	0.173262	0.000000	-1.580843	0.000000	-10.636399	-0.000000
1.932000	11.816509	1484.957586	-480.295002	0.140179	0.000000	-0.783257	0.000000	13.449875	0.000000	-8.078985	1431.283900	480.175706	0.172677	0.000000	-1.581226	0.000000	-10.642011	-0.000000
1.933000	11.833167	1484.728424	-480.047807	0.140214	0.000000	-0.785254	0.000000	13.451275	0.000000	-7.911533	1431.542115	480.134504	0.172747	0.000000	-1.580939	-0.000000	-10.646980	-0.000000
1.934000	11.846436	1484.484847	-479.802069	0.139879	0.000000	-0.783575	0.000000	13.452746	0.000000	-7.749436	1431.790242	480.091247	0.172646	0.000000	-1.579586	-0.000000	-10.651233	-0.000000
1.935000	11.856353	1484.226660	-479.558142	0.140174	0.000000	-0.783862	0.000000	13.454344	0.000000	-7.593018	1432.025678	480.045136	0.172596	0.000000	-1.580448	-0.000000	-10.654735	-0.000000
1.936000	11.863061	1483.954208	-479.316443	0.140672	0.000000	-0.783546	0.000000	13.456107	0.000000	-7.442527	1432.246150	479.995431	0.172754	0.000000	-1.581042	-0.000000	-10.657487	-0.000000
1.937000	11.866788	1483.668344	-479.077310	0.139818	0.000000	-0.785079	0.000000	13.458052	0.000000	-7.298137	1432.449507	479.941416	0.172673	0.000000	-1.580673	-0.000000	-10.659511	-0.000000
1.938000	11.867843	1483.370645	-478.840918	0.140207	0.000000	-0.782625	0.000000	13.460165	0.000000	-7.160033	1432.633363	479.882403	0.173303	0.000000	-1.579527	-0.000000	-10.660826	-0.000000
1.939000	11.866625	1483.063148	-478.607326	0.140378	0.000000	-0.783787	0.000000	13.462418	0.000000	-7.028489	1432.794811	479.817704	0.172421	0.000000	-1.580234	-0.000000	-10.661431	-0.000000
1.940000	11.863629	1482.747707	-478.376537	0.140844	0.000000	-0.782071	0.000000	13.464778	0.000000	-6.903861	1432.930220	479.746593	0.172424	0.000000	-1.580617	-0.000000	-10.661316	-0.000000
1.941000	11.859477	1482.425374	-478.148522	0.139923	0.000000	-0.782769	0.000000	13.467188	0.000000	-6.786478	1433.035396	479.668301	0.172612	0.000000	-1.579755	-0.000000	-10.660484	-0.000000
1.942000	11.854902	1482.096135	-477.923279	0.140621	0.000000	-0.783993	0.000000	13.469558	0.000000	-6.676527	1433.106099	479.582026	0.172940	0.000000	-1.580794	-0.000000	-10.658958	-0.000000
1.943000	11.850666	1481.759228	-477.700854	0.140148	0.000000	-0.783453	0.000000	13.471782	0.000000	-6.574056	1433.138701	479.486953	0.172577	0.000000	-1.580217	-0.000000	-10.656751	-0.000000
1.944000	11.847455	1481.413560	-477.481333	0.138946	0.000000	-0.781711	0.000000	13.473770	0.000000	-6.479098	1433.130527	479.382312	0.172574	0.000000	-1.580162	-0.000000	-10.653843	-0.000000
1.945000	11.845832	1481.057627	-477.264817	0.140625	0.000000	-0.784559	0.000000	13.475478	0.000000	-6.391755	1433.079561	479.267479	0.172359	0.000000	-1.580666	-0.000000	-10.650196	-0.000000
1.946000	11.846277	1480.689552	-477.051414	0.140339	0.000000	-0.784348	0.000000	13.476923	0.000000	-6.312207	1432.983819	479.142054	0.172308	0.000000	-1.579284	-0.000000	-10.645794	-0.000000
1.947000	11.849256	1480.307609	-476.841243	0.140668	0.000000	-0.783593	0.000000	13.478140	0.000000	-6.240655	1432.841091	479.005847	0.172234	0.000000	-1.580669	-0.000000	-10.640652	-0.000000
1.948000	11.855241	1479.910571	-476.634440	0.139880	0.000000	-0.782802	0.000000	13.479141	0.000000	-6.177288	1432.649121	478.858838	0.172072	0.000000	-1.581098	-0.000000	-10.634805	-0.000000
1.949000	11.864702	1479.497590	-476.431160	0.140102	0.000000	-0.783133	-0.000000	13.479923	0.000000	-6.122344	1432.406161	478.701178	0.171755	0.000000	-1.581556	-0.000000	-10.628317	-0.000000
